<svg width="40" height="40" viewBox="0 0 108 108" fill="none" xmlns="http://www.w3.org/2000/svg">
<path d="M14.4855 19.2645C14.1717 18.9507 13.9228 18.5782 13.753 18.1682C13.5831 17.7582 13.4957 17.3188 13.4957 16.875C13.4957 16.4312 13.5831 15.9918 13.753 15.5818C13.9228 15.1718 14.1717 14.7993 14.4855 14.4855C14.7993 14.1717 15.1718 13.9228 15.5818 13.753C15.9918 13.5831 16.4312 13.4957 16.875 13.4957C17.3188 13.4957 17.7582 13.5831 18.1682 13.753C18.5782 13.9228 18.9507 14.1717 19.2645 14.4855L54 49.2277L88.7355 14.4855C89.0493 14.1717 89.4218 13.9228 89.8318 13.753C90.2418 13.5831 90.6812 13.4957 91.125 13.4957C91.5688 13.4957 92.0082 13.5831 92.4182 13.753C92.8282 13.9228 93.2007 14.1717 93.5145 14.4855C93.8283 14.7993 94.0772 15.1718 94.247 15.5818C94.4168 15.9918 94.5043 16.4312 94.5043 16.875C94.5043 17.3188 94.4168 17.7582 94.247 18.1682C94.0772 18.5782 93.8283 18.9507 93.5145 19.2645L58.7722 54L93.5145 88.7355C93.8283 89.0493 94.0772 89.4218 94.247 89.8318C94.4168 90.2418 94.5043 90.6812 94.5043 91.125C94.5043 91.5688 94.4168 92.0082 94.247 92.4182C94.0772 92.8282 93.8283 93.2007 93.5145 93.5145C93.2007 93.8283 92.8282 94.0772 92.4182 94.247C92.0082 94.4169 91.5688 94.5043 91.125 94.5043C90.6812 94.5043 90.2418 94.4169 89.8318 94.247C89.4218 94.0772 89.0493 93.8283 88.7355 93.5145L54 58.7722L19.2645 93.5145C18.9507 93.8283 18.5782 94.0772 18.1682 94.247C17.7582 94.4169 17.3188 94.5043 16.875 94.5043C16.4312 94.5043 15.9918 94.4169 15.5818 94.247C15.1718 94.0772 14.7993 93.8283 14.4855 93.5145C14.1717 93.2007 13.9228 92.8282 13.753 92.4182C13.5831 92.0082 13.4957 91.5688 13.4957 91.125C13.4957 90.6812 13.5831 90.2418 13.753 89.8318C13.9228 89.4218 14.1717 89.0493 14.4855 88.7355L49.2277 54L14.4855 19.2645Z" fill="black"/>
</svg>
