<?xml version="1.0" standalone="no"?>
<!DOCTYPE svg PUBLIC "-//W3C//DTD SVG 20010904//EN"
 "http://www.w3.org/TR/2001/REC-SVG-20010904/DTD/svg10.dtd">
<svg version="1.0" xmlns="http://www.w3.org/2000/svg"
 width="30" height="30" viewBox="0 0 500.000000 500.000000"
 preserveAspectRatio="xMidYMid meet">

<g transform="translate(0.000000,500.000000) scale(0.100000,-0.100000)"
fill="#000000" stroke="none">
<path d="M2345 4973 c-634 -51 -1168 -294 -1600 -727 -394 -396 -628 -870
-707 -1436 -16 -120 -16 -461 1 -600 46 -378 191 -774 396 -1080 405 -605
1027 -990 1765 -1091 121 -17 466 -17 590 -1 556 74 1052 313 1442 695 576
564 836 1351 712 2152 -133 862 -722 1597 -1535 1918 -331 131 -741 197 -1064
170z m370 -953 c327 -103 545 -394 545 -728 0 -126 -22 -217 -82 -342 -44 -91
-61 -115 -142 -195 -79 -80 -105 -98 -196 -143 -135 -67 -231 -86 -384 -80
-162 7 -285 53 -424 158 -178 134 -278 324 -289 550 -12 240 71 449 243 608
86 80 157 125 256 159 105 36 148 42 283 39 88 -3 138 -10 190 -26z m-765
-1468 c76 -58 224 -127 325 -153 126 -32 322 -32 445 -1 103 27 244 92 322
149 l57 42 73 -30 c347 -143 627 -425 732 -739 52 -156 63 -354 27 -470 -55
-173 -187 -310 -361 -372 l-65 -23 -975 -3 c-694 -2 -992 0 -1035 8 -186 35
-355 185 -421 374 -56 157 -29 404 66 600 56 116 111 195 203 292 128 136 306
258 485 335 37 16 68 29 69 29 2 0 25 -17 53 -38z"/>
</g>
</svg>
