<svg width="40" height="40" viewBox="0 0 73 73" fill="none" xmlns="http://www.w3.org/2000/svg">
<path fill-rule="evenodd" clip-rule="evenodd" d="M9.125 57.0312C9.125 56.4262 9.36535 55.846 9.79316 55.4182C10.221 54.9903 10.8012 54.75 11.4062 54.75H61.5938C62.1988 54.75 62.779 54.9903 63.2068 55.4182C63.6347 55.846 63.875 56.4262 63.875 57.0312C63.875 57.6363 63.6347 58.2165 63.2068 58.6443C62.779 59.0722 62.1988 59.3125 61.5938 59.3125H11.4062C10.8012 59.3125 10.221 59.0722 9.79316 58.6443C9.36535 58.2165 9.125 57.6363 9.125 57.0312ZM9.125 43.3438C9.125 42.7387 9.36535 42.1585 9.79316 41.7307C10.221 41.3028 10.8012 41.0625 11.4062 41.0625H61.5938C62.1988 41.0625 62.779 41.3028 63.2068 41.7307C63.6347 42.1585 63.875 42.7387 63.875 43.3438C63.875 43.9488 63.6347 44.529 63.2068 44.9568C62.779 45.3847 62.1988 45.625 61.5938 45.625H11.4062C10.8012 45.625 10.221 45.3847 9.79316 44.9568C9.36535 44.529 9.125 43.9488 9.125 43.3438ZM9.125 29.6562C9.125 29.0512 9.36535 28.471 9.79316 28.0432C10.221 27.6153 10.8012 27.375 11.4062 27.375H61.5938C62.1988 27.375 62.779 27.6153 63.2068 28.0432C63.6347 28.471 63.875 29.0512 63.875 29.6562C63.875 30.2613 63.6347 30.8415 63.2068 31.2693C62.779 31.6972 62.1988 31.9375 61.5938 31.9375H11.4062C10.8012 31.9375 10.221 31.6972 9.79316 31.2693C9.36535 30.8415 9.125 30.2613 9.125 29.6562ZM9.125 15.9688C9.125 15.3637 9.36535 14.7835 9.79316 14.3557C10.221 13.9278 10.8012 13.6875 11.4062 13.6875H61.5938C62.1988 13.6875 62.779 13.9278 63.2068 14.3557C63.6347 14.7835 63.875 15.3637 63.875 15.9688C63.875 16.5738 63.6347 17.154 63.2068 17.5818C62.779 18.0097 62.1988 18.25 61.5938 18.25H11.4062C10.8012 18.25 10.221 18.0097 9.79316 17.5818C9.36535 17.154 9.125 16.5738 9.125 15.9688Z" fill="black"/>
</svg>
