<?xml version="1.0" standalone="no"?>
<!DOCTYPE svg PUBLIC "-//W3C//DTD SVG 20010904//EN"
 "http://www.w3.org/TR/2001/REC-SVG-20010904/DTD/svg10.dtd">
<svg version="1.0" xmlns="http://www.w3.org/2000/svg"
 width="46" height="46" viewBox="0 0 42.000000 42.000000"
 preserveAspectRatio="xMidYMid meet">

<g transform="translate(0.000000,42.000000) scale(0.100000,-0.100000)"
fill="#000000" stroke="none">
<path d="M149 406 c-70 -25 -110 -67 -136 -141 -21 -63 -11 -124 31 -177 51
-68 88 -88 164 -88 108 0 173 52 202 159 18 69 -2 134 -60 192 -65 65 -127 82
-201 55z m62 -151 c12 -19 24 -35 29 -35 4 0 20 16 34 35 28 36 62 46 72 20 7
-18 -86 -140 -107 -140 -7 0 -25 17 -38 38 l-25 38 -37 -43 c-32 -37 -38 -41
-53 -29 -9 7 -16 17 -16 21 0 18 91 130 105 130 9 0 25 -16 36 -35z"/>
</g>
</svg>
