<svg width="30" height="30" viewBox="0 0 40 40" fill="none" xmlns="http://www.w3.org/2000/svg">
<g clip-path="url(#clip0_5_112)">
<path d="M29.3548 25.8605C31.7755 22.5572 32.8598 18.4617 32.3906 14.3934C31.9214 10.325 29.9333 6.58384 26.8242 3.91832C23.7151 1.2528 19.7142 -0.140496 15.6219 0.0171872C11.5296 0.17487 7.64776 1.8719 4.75297 4.76876C1.85818 7.66563 0.163929 11.5487 0.00917493 15.6411C-0.14558 19.7335 1.25058 23.7334 3.91832 26.8406C6.58607 29.9478 10.3287 31.9332 14.3973 32.3995C18.466 32.8658 22.5608 31.7786 25.8623 29.3555H25.8598C25.9348 29.4555 26.0148 29.5505 26.1048 29.643L35.7298 39.268C36.1986 39.7371 36.8345 40.0008 37.4977 40.001C38.1608 40.0012 38.7969 39.738 39.266 39.2692C39.7351 38.8005 39.9988 38.1646 39.9991 37.5014C39.9993 36.8382 39.7361 36.2021 39.2673 35.733L29.6423 26.108C29.5529 26.0175 29.4568 25.934 29.3548 25.858V25.8605ZM29.9998 16.2505C29.9998 18.0562 29.6441 19.8442 28.9531 21.5124C28.2621 23.1806 27.2493 24.6964 25.9725 25.9732C24.6957 27.25 23.1799 28.2628 21.5117 28.9538C19.8435 29.6448 18.0555 30.0005 16.2498 30.0005C14.4441 30.0005 12.6561 29.6448 10.9879 28.9538C9.31968 28.2628 7.80389 27.25 6.52708 25.9732C5.25028 24.6964 4.23746 23.1806 3.54646 21.5124C2.85546 19.8442 2.4998 18.0562 2.4998 16.2505C2.4998 12.6038 3.94846 9.1064 6.52708 6.52778C9.10571 3.94915 12.6031 2.5005 16.2498 2.5005C19.8965 2.5005 23.3939 3.94915 25.9725 6.52778C28.5511 9.1064 29.9998 12.6038 29.9998 16.2505Z" fill="black"/>
</g>
<defs>
<clipPath id="clip0_5_112">
<rect width="40" height="40" fill="white"/>
</clipPath>
</defs>
</svg>
